<svg width="24" height="24" fill="none" xmlns="http://www.w3.org/2000/svg"><path d="M23.997 15.582a3.349 3.349 0 0 0-.698-2.016 3.955 3.955 0 0 0-1.835-1.316l2.492-8.39c.053-.18.058-.366.016-.547-.041-.181-.129-.35-.256-.496a1.332 1.332 0 0 0-.473-.318 1.464 1.464 0 0 0-.58-.102H4.4L3.96.887a1.2 1.2 0 0 0-.478-.641A1.434 1.434 0 0 0 2.666 0H0v2.397h1.64l3.306 11.1c.078.26.252.49.494.652.242.16.538.243.84.234h13.717c.354 0 .693.126.943.351.25.225.39.53.39.848 0 .318-.14.622-.39.847-.25.225-.59.351-.943.351H2.667c-.354 0-.693.127-.943.351-.25.225-.39.53-.39.848 0 .318.14.623.39.847.25.225.589.351.942.351H4.24a3.257 3.257 0 0 0-.205 1.699c.084.573.32 1.119.69 1.592.369.473.859.86 1.429 1.126.57.267 1.203.406 1.846.406.642 0 1.276-.14 1.846-.406a3.903 3.903 0 0 0 1.429-1.126c.369-.473.605-1.02.69-1.592a3.258 3.258 0 0 0-.206-1.699h3.147a3.26 3.26 0 0 0-.224 1.547c.052.524.23 1.031.525 1.486.294.455.695.846 1.176 1.147.48.3 1.028.502 1.605.59.577.09 1.168.064 1.732-.075a4.166 4.166 0 0 0 1.534-.728c.446-.34.804-.765 1.047-1.243.244-.478.368-.999.363-1.525a3.258 3.258 0 0 0-.533-1.762 3.79 3.79 0 0 0 1.366-1.3c.327-.53.499-1.126.5-1.732zm-5.213-3.596H7.332L5.12 4.794H20.93l-2.146 7.192zM7.999 21.575c-.264 0-.522-.07-.74-.202a1.236 1.236 0 0 1-.492-.538c-.1-.22-.127-.46-.076-.693.052-.232.179-.446.365-.613.187-.168.424-.282.683-.328.258-.047.526-.023.77.068.244.09.452.244.598.441.147.197.225.429.225.666 0 .318-.14.623-.39.848-.25.224-.59.35-.943.35zm10.665 0c-.264 0-.522-.07-.74-.202a1.236 1.236 0 0 1-.492-.538c-.1-.22-.127-.46-.076-.693.052-.232.179-.446.365-.613.187-.168.424-.282.683-.328.258-.047.526-.023.77.068.244.09.452.244.598.441.147.197.225.429.225.666 0 .318-.14.623-.39.848-.25.224-.59.35-.943.35z" fill="#403148"/></svg>