<svg width="14" height="14" fill="none" xmlns="http://www.w3.org/2000/svg"><path d="M5.834 13a1.166 1.166 0 1 0 0-2.333 1.166 1.166 0 0 0 0 2.333zM10.915 13a1.166 1.166 0 1 0 0-2.333 1.166 1.166 0 0 0 0 2.333zM3.13 2.58l1.378 4.364c.212.671.318 1.006.521 1.255.179.219.411.388.674.493.298.119.649.119 1.353.119h2.643c.704 0 1.055 0 1.352-.119.264-.105.495-.274.674-.493.203-.249.309-.584.521-1.255l.28-.888.165-.525.227-.72a1.713 1.713 0 0 0-1.634-2.23H3.13zm0 0-.008-.025a4.794 4.794 0 0 0-.096-.288 2.002 2.002 0 0 0-1.722-1.262C1.234 1 1.156 1 1 1" stroke="#fff" stroke-width="1.5" stroke-linecap="round" stroke-linejoin="round"/></svg>