<svg width="50" height="50" fill="none" xmlns="http://www.w3.org/2000/svg"><path d="M15.889 14.206c-1.608 0-2.916 1.295-2.916 2.886 0 1.592 1.308 2.887 2.915 2.887 1.608 0 2.916-1.295 2.916-2.887 0-1.591-1.308-2.886-2.915-2.886zm0 4.165a1.286 1.286 0 0 1-1.292-1.279c0-.704.58-1.278 1.292-1.278.712 0 1.29.573 1.29 1.278 0 .705-.579 1.279-1.29 1.279zm1.57-11.044-8.86 12.209a.814.814 0 0 1-1.129.182.796.796 0 0 1-.184-1.118l8.86-12.209a.814.814 0 0 1 1.129-.182c.363.259.445.76.184 1.118zm-5.694 1.418c0-1.592-1.308-2.887-2.916-2.887-1.608 0-2.916 1.295-2.916 2.887s1.308 2.887 2.916 2.887c1.608 0 2.916-1.295 2.916-2.887zm-4.207 0c0-.705.58-1.278 1.291-1.278.712 0 1.291.573 1.291 1.278 0 .705-.579 1.278-1.291 1.278a1.286 1.286 0 0 1-1.291-1.278zm42.386 12.467-1.97-10.49c-.245-1.303-.684-2.778-2.084-3.842-1.317-1-2.77-1.093-4.049-1.014L37.43 1.011A3.02 3.02 0 0 0 35.138 0H3.082C1.382 0 0 1.369 0 3.051v19.735c0 1.683 1.383 3.051 3.082 3.051h11.672L9.14 33.081a3.035 3.035 0 0 0 .57 4.278L25.525 49.37A3.086 3.086 0 0 0 27.4 50a3.09 3.09 0 0 0 2.449-1.193l19.512-25.18c.547-.705.749-1.54.584-2.415zM3.082 24.23a1.452 1.452 0 0 1-1.458-1.443V3.051c0-.796.654-1.443 1.458-1.443h32.056c.437 0 .792.157 1.084.478l3.577 3.937-8.941.693a3.014 3.014 0 0 0-2.205 1.185L16 24.229H3.082zm44.989-1.58-19.512 25.18a1.469 1.469 0 0 1-2.044.266L10.7 36.083a1.435 1.435 0 0 1-.269-2.024L29.942 8.88a1.39 1.39 0 0 1 1.043-.56l10.745-.833c1.106-.086 2.26-.022 3.172.67.777.59 1.204 1.42 1.475 2.86l1.97 10.49c.08.426-.01.8-.276 1.142zm-5.334-11.7a2.945 2.945 0 0 0-4.097.535 2.877 2.877 0 0 0 .54 4.056c1.262.96 3.13.714 4.097-.534a2.877 2.877 0 0 0-.54-4.056zm-.749 3.078a1.32 1.32 0 0 1-1.82.237 1.289 1.289 0 0 1-.239-1.8 1.3 1.3 0 0 1 1.031-.503c1.047 0 1.672 1.234 1.028 2.066zm-.53 7.018-2.641 3.408a.816.816 0 0 1-1.136.151l-7.012-5.324a.797.797 0 0 1-.153-1.125.816.816 0 0 1 1.136-.15l6.37 4.837 2.147-2.77a.816.816 0 0 1 1.136-.151.797.797 0 0 1 .152 1.124zM25.984 36.167l-3.57-2.71c-1.265-.96-3.204-.708-4.177.548l-1.32 1.704a.797.797 0 0 0 .152 1.124l7.013 5.325a.816.816 0 0 0 1.136-.151l1.32-1.704c.964-1.245.697-3.186-.554-4.136zm-.734 3.162-.826 1.066-5.727-4.348.828-1.069a1.388 1.388 0 0 1 1.906-.246l3.57 2.71c.58.44.7 1.305.249 1.887zm6.998-6.398-2.64 3.409a.816.816 0 0 1-1.136.15l-7.013-5.324a.797.797 0 0 1-.152-1.124l2.64-3.409a.816.816 0 0 1 1.136-.15.797.797 0 0 1 .153 1.124l-2.149 2.773 2.22 1.686 1.377-1.776a.816.816 0 0 1 1.135-.151.797.797 0 0 1 .153 1.125l-1.378 1.778 2.22 1.686 2.146-2.77a.816.816 0 0 1 1.136-.151.797.797 0 0 1 .152 1.124zm4.64-7.576-8.737-3.098v.002a.816.816 0 0 0-.733.096.797.797 0 0 0-.206 1.115l5.287 7.55a.815.815 0 0 0 1.127.205.797.797 0 0 0 .206-1.115l-1.265-1.807 1.685-2.176 2.091.741a.814.814 0 0 0 1.038-.486.801.801 0 0 0-.492-1.027zm-5.291 1.563-1.613-2.304 2.666.945-1.053 1.359z" fill="#F2AB00"/></svg>