<svg width="50" height="48" fill="none" xmlns="http://www.w3.org/2000/svg"><path d="M48.777 31.05a4.123 4.123 0 0 0-2.608-1.126 19.024 19.024 0 0 0 1.14-6.53c0-4-1.204-7.809-3.482-11.018a.963.963 0 0 0-1.377-.218 1.043 1.043 0 0 0-.21 1.425c2.027 2.856 3.099 6.249 3.099 9.81 0 2.482-.517 4.863-1.534 7.083a4.03 4.03 0 0 0-.765.574l-6.661 6.366c-.1.095-.55.402-2.214.402h-.031c-2.616-.007-6.595-.014-9.602-.02l-1.418-.002c-.763 0-1.384-.559-1.384-1.245 0-.675.634-1.246 1.384-1.246h6.313c2.014 0 3.652-1.601 3.652-3.57 0-.183-.014-.363-.042-.539 1.57-.73 2.624-2.352 2.624-4.207 0-2.545-1.988-4.615-4.43-4.615h-3.8c-1.372 0-2.488-1.157-2.488-2.579 0-1.42 1.116-2.576 2.488-2.576h7.245c.544 0 .985-.457.985-1.02 0-.562-.441-1.019-.985-1.019h-4.378l.006-2.453c0-.563-.439-1.02-.983-1.021h-.002c-.543 0-.984.454-.985 1.016l-.006 2.459h-.897c-2.458 0-4.457 2.07-4.457 4.614 0 2.546 2 4.617 4.457 4.617h3.8c1.334 0 2.46 1.18 2.46 2.577a2.609 2.609 0 0 1-1.537 2.376 3.682 3.682 0 0 0-2.727-1.198H13.97a17.129 17.129 0 0 1-.675-4.774c0-1.293.143-2.567.424-3.806.118.08.237.157.357.232.542.336.962.504 1.382.504.42 0 .84-.168 1.384-.504 1.947-1.204 3.654-3.204 5.075-5.945 1.036-1.998 1.678-4.065 1.896-6.06a15.434 15.434 0 0 1 5.505-1.009c2.264 0 4.45.479 6.498 1.422.13.06.266.088.4.088a.984.984 0 0 0 .9-.605 1.034 1.034 0 0 0-.5-1.345 17.326 17.326 0 0 0-7.298-1.598c-1.87 0-3.7.294-5.456.874-.139-1.107-.692-1.475-1.525-1.939l-6.41-3.58a.956.956 0 0 0-.935 0L8.579 3.704c-.958.533-1.546.94-1.558 2.492C7 8.68 7.684 11.336 9 13.874c.901 1.74 1.92 3.179 3.041 4.308a19.18 19.18 0 0 0-.715 5.211c0 1.71.224 3.396.665 5.03a7.576 7.576 0 0 0-2.358 1.093c-.316-1.575-1.737-2.767-3.437-2.767H3.503C1.571 26.749 0 28.287 0 30.177v13.594c0 1.889 1.571 3.425 3.503 3.425h2.693c1.931 0 3.503-1.536 3.503-3.425v-.022l6.241 2.897a.95.95 0 0 0 .064.027c1.934.734 4.402.785 11.26.821 5.192.006 5.87.006 6.856.006 2.48 0 3.747-.233 5.16-1.671l8.821-8.434.675-.645A3.908 3.908 0 0 0 50 33.9a3.907 3.907 0 0 0-1.223-2.85zM7.729 43.77c0 .766-.688 1.388-1.533 1.388H3.503c-.845 0-1.533-.622-1.533-1.387V30.177c0-.753.702-1.39 1.533-1.39h2.693c.83 0 1.533.637 1.533 1.39v13.594zm3.007-30.86c-1.16-2.237-1.764-4.553-1.746-6.697a2.1 2.1 0 0 1 .031-.42c.079-.065.297-.186.492-.295l5.947-3.321 5.92 3.306.025.014c.194.108.413.23.492.295.01.044.029.16.03.422.02 2.138-.583 4.454-1.745 6.696-1.25 2.411-2.713 4.147-4.35 5.159a2.814 2.814 0 0 1-.373.207 2.83 2.83 0 0 1-.37-.206c-1.616-1-3.122-2.784-4.353-5.16zM47.44 35.253l-.675.645-8.833 8.445a.748.748 0 0 0-.024.023c-.83.849-1.428 1.096-3.788 1.096-.985 0-1.663 0-6.85-.006-6.276-.034-8.911-.072-10.556-.685l-7.015-3.256v-9.377a5.585 5.585 0 0 1 4.228-1.933h15.5c.645 0 1.206.333 1.488.819l.016.03c.113.206.178.437.178.682 0 .844-.754 1.53-1.682 1.53h-6.312c-1.85 0-3.354 1.474-3.354 3.285 0 1.81 1.505 3.283 3.352 3.283l1.416.002c3.006.006 6.985.013 9.6.02h.035c1.75 0 2.88-.3 3.552-.943l6.661-6.366c.83-.795 2.233-.795 3.064 0 .38.364.59.844.59 1.353s-.21.99-.59 1.353z" fill="#F2AB00"/><path d="M40.008 10.718c.253 0 .505-.1.697-.298a1.044 1.044 0 0 0 0-1.442l-.003-.003a.96.96 0 0 0-1.391.002 1.046 1.046 0 0 0 .001 1.443.965.965 0 0 0 .697.298zM15.028 12.56a.966.966 0 0 0 .706-.308l3.475-3.69a1.044 1.044 0 0 0-.017-1.44.962.962 0 0 0-1.393.018l-2.802 2.974-.972-.941a.962.962 0 0 0-1.392.047 1.044 1.044 0 0 0 .046 1.44l1.677 1.625c.19.184.431.275.672.275z" fill="#F2AB00"/></svg>