<svg width="59" height="45" fill="none" xmlns="http://www.w3.org/2000/svg"><path d="M13.41 19.343A12.242 12.242 0 0 1 24.452 26.3a12.218 12.218 0 0 1-1.526 12.955 12.236 12.236 0 0 1-12.359 4.205 12.238 12.238 0 0 1-9.12-9.333l-.214-.993-.006.002c-.037-.29-.073-.61-.097-.933v-.012l-.002-.011c-.118-1.216-.176-2.92-.079-4.986.118-2.052.421-4.44 1.095-6.949.357-1.253.79-2.534 1.324-3.781l.187-.396c.555-1.176 1.065-2.257 1.778-3.25l.026-.037.023-.038c.687-1.162 1.585-2.203 2.548-3.246l.026-.029.024-.03c.379-.48.838-.9 1.355-1.328.169-.139.355-.287.547-.44.352-.282.724-.58 1.053-.87.45-.373.94-.687 1.466-.995.166-.098.344-.2.527-.304.366-.209.751-.429 1.1-.649l.009-.006.01-.007c.42-.28.87-.488 1.357-.684.154-.062.326-.128.506-.196.328-.126.68-.261.99-.398.27-.105.517-.205.745-.298.65-.264 1.151-.468 1.646-.56l.032-.005.032-.008c.454-.115.853-.213 1.222-.304.28-.068.542-.133.798-.197l.788-.19.976 3.899-.595.247-.003.001-1.55.638a5.945 5.945 0 0 0-1.094.52c-.15.087-.302.18-.446.268l-.047.029c-.162.098-.316.192-.474.282l-.029.017-.028.019a8.07 8.07 0 0 1-.604.354c-.12.066-.25.137-.398.222-.384.22-.83.499-1.233.892-.205.19-.422.358-.678.557a42.7 42.7 0 0 0-.288.226c-.367.29-.784.64-1.149 1.078l-.011.014-.011.014a8.57 8.57 0 0 1-.586.66c-.09.096-.186.197-.29.31-.322.348-.686.772-.964 1.3l-.03.046c-.483.733-1.032 1.565-1.4 2.53-.37.706-.596 1.468-.788 2.113l-.003.012-.447 1.5 1.549-.225.126-.018c.596-.087 1.11-.162 1.642-.162zm32.354 0A12.242 12.242 0 0 1 56.806 26.3a12.218 12.218 0 0 1-1.527 12.955 12.236 12.236 0 0 1-12.358 4.205 12.237 12.237 0 0 1-9.121-9.333l-.213-.993-.006.002c-.037-.29-.073-.61-.097-.933v-.012l-.002-.011c-.118-1.216-.177-2.92-.079-4.986.118-2.052.42-4.44 1.095-6.949.356-1.253.79-2.534 1.324-3.781l.187-.396c.554-1.176 1.064-2.257 1.778-3.25l.026-.037.023-.038c.687-1.162 1.585-2.203 2.548-3.246l.025-.028.024-.03c.379-.48.839-.899 1.355-1.326.169-.138.353-.286.544-.438.353-.282.727-.58 1.056-.872.45-.373.94-.687 1.466-.995.167-.098.345-.2.528-.304.366-.209.75-.429 1.099-.65l.01-.006.011-.007c.42-.28.869-.488 1.356-.684.15-.06.317-.124.49-.19.334-.128.692-.266 1.008-.407.27-.105.515-.204.743-.297.65-.264 1.15-.468 1.646-.56l.032-.005.032-.008c.453-.115.852-.213 1.222-.304.28-.068.542-.133.798-.197l.005-.001.783-.189.976 3.899-.595.247-.003.001-1.55.638a5.945 5.945 0 0 0-1.094.52c-.15.087-.303.18-.446.268l-.048.029c-.161.099-.316.192-.473.282l-.03.017-.027.019c-.19.126-.377.23-.604.354-.12.066-.25.137-.398.222-.385.22-.83.499-1.233.892-.206.19-.423.358-.678.557l-.289.226c-.367.29-.783.64-1.148 1.078l-.012.014-.01.014a8.57 8.57 0 0 1-.586.66c-.09.096-.186.197-.29.31-.322.348-.686.772-.965 1.3l-.03.046c-.483.733-1.031 1.565-1.399 2.53-.37.706-.596 1.468-.788 2.113l-.004.012-.446 1.5 1.549-.225.125-.018c.596-.087 1.111-.162 1.642-.162z" stroke="#499F86" stroke-width="2"/></svg>