<svg width="48" height="43" fill="none" xmlns="http://www.w3.org/2000/svg"><path d="m47.5 5.814-.001-.015c0-.02-.002-.041-.004-.061l-.004-.022a.643.643 0 0 0-.034-.133l-.004-.01-1.887-4.78A1.253 1.253 0 0 0 44.392 0h-3.437c-.374 0-.678.3-.678.671 0 .37.304.67.678.67h3.371l1.502 3.805h-14.2l-.89-3.804h5.244c.375 0 .678-.3.678-.671A.675.675 0 0 0 35.983 0H8.542C8.02 0 7.56.311 7.368.793l-1.887 4.78-.004.01a.651.651 0 0 0-.034.133l-.004.022a.686.686 0 0 0-.004.06v9.876c0 .37.303.67.678.67.374 0 .678-.3.678-.67V6.488h14.377v10.198a1.016 1.016 0 0 0 1.026 1.015c.246 0 .49-.087.68-.255l3.593-3.148 3.592 3.148c.302.265.735.33 1.102.166.368-.164.605-.527.605-.926V6.488h14.377v30.094a.88.88 0 0 1-.882.873H32.824v-.023c-.002-.06-.004-.12-.01-.18a2.451 2.451 0 0 0 2.884-1.422 2.374 2.374 0 0 0-.088-2.012l-.015-.03a2.421 2.421 0 0 0-.087-.149c-.005-.01-.012-.018-.018-.028a2.366 2.366 0 0 0-.101-.145l-.002-.003a2.446 2.446 0 0 0-.112-.135l-.02-.024a2.377 2.377 0 0 0-.12-.123l-.025-.022a2.368 2.368 0 0 0-.133-.116l-.005-.004a2.42 2.42 0 0 0-.314-.212l-.012-.007a2.405 2.405 0 0 0-.678-4.06l-10.556-4.258 4.914-1.505a2.2 2.2 0 0 0 1.467-2.75 2.154 2.154 0 0 0-.744-1.062 2.303 2.303 0 0 0-1.873-.435l-.01.002a315.808 315.808 0 0 1-8.759 1.8 154.326 154.326 0 0 1-.925.17c-4.94.9-6.328.917-6.714.865h-.004l-.017-.003a.9.9 0 0 1-.011-.002h-.008a.534.534 0 0 1-.057-.014l-.111-.045.138-.336a1.314 1.314 0 0 0-.132-1.254 1.339 1.339 0 0 0-.608-.487l-3.643-1.47a1.354 1.354 0 0 0-1.76.733L.1 29.516a1.332 1.332 0 0 0 .74 1.742l3.644 1.469a1.353 1.353 0 0 0 1.76-.733l.033-.08.84.338h.002a7.46 7.46 0 0 1 2.993 2.21 8.806 8.806 0 0 0 3.539 2.612l.945.381H7.674a.88.88 0 0 1-.883-.873v-1.698a.675.675 0 0 0-.678-.67c-.375 0-.679.3-.679.67v1.698c0 1.221 1.005 2.215 2.24 2.215h10.249l8.737 3.524a2.445 2.445 0 0 0 3.181-1.324c.159-.383.21-.784.167-1.17.454.065.925.006 1.352-.176.434-.186.794-.481 1.05-.854h12.85c1.236 0 2.24-.994 2.24-2.215V5.814zM23.59 1.342h5.755l.89 3.804h-7.536l.89-3.804zm-2.283 3.804H7.106l1.502-3.804h13.589l-.89 3.804zM30.41 15.96l-3.262-2.858a1.031 1.031 0 0 0-1.361 0l-3.262 2.858V6.488h7.885v9.472zM4.99 31.482l-3.632-1.465 4.45-10.795 3.632 1.464-4.45 10.796zm26.319 3.735h-.001l-8.108-3.27a.68.68 0 0 0-.884.367.669.669 0 0 0 .372.875l8.107 3.27c.034.014.066.029.098.045l.026.016c.022.012.045.024.066.038l.029.022c.019.013.038.026.055.04l.03.028c.017.013.033.027.048.041l.029.032c.014.015.028.029.04.044l.028.036c.012.015.024.03.034.046.01.013.017.026.025.04l.029.046.022.044.023.047.018.047.019.048.014.05c.004.015.01.031.013.048l.01.05.008.05c.003.017.003.034.005.051l.004.051v.05c-.001.018 0 .036-.002.053 0 .017-.003.034-.005.05l-.007.054c-.002.016-.006.032-.01.049l-.012.054c-.004.016-.01.031-.015.047l-.018.054a1.224 1.224 0 0 0-.017.037 1.05 1.05 0 0 1-.56.552 1.16 1.16 0 0 1-.883.01l-1.436-.579-.02-.007-.02-.009-6.594-2.66a.68.68 0 0 0-.884.368.668.668 0 0 0 .372.875l6.594 2.66.021.007.019.009c.553.223.82.85.594 1.398-.225.547-.859.811-1.413.588l-8.859-3.574h-.001l-4.149-1.674a7.465 7.465 0 0 1-2.993-2.209 8.826 8.826 0 0 0-3.54-2.612h.001l-.841-.34 3.258-7.904.117.047c.11.044.267.107.688.123.527.024 1.4-.03 2.962-.25a98.503 98.503 0 0 0 3.888-.64l.113-.02.215-.04.17-.03.194-.037.21-.04.171-.031.262-.05.136-.025.41-.079c3.92-.754 7.705-1.594 7.875-1.632l.05-.008c.436-.063.863.186.988.588a.862.862 0 0 1-.572 1.073l-6.724 2.059a.672.672 0 0 0-.477.612.67.67 0 0 0 .421.65l12.311 4.966a1.071 1.071 0 0 1 .595 1.398 1.07 1.07 0 0 1-.584.583 1.095 1.095 0 0 1-.414.085h-.006c-.033 0-.066-.002-.099-.005-.01 0-.02-.003-.029-.004l-.075-.01-.047-.012-.056-.013-.057-.02-.045-.016-8.109-3.27a.68.68 0 0 0-.884.368.669.669 0 0 0 .372.875l9.83 3.964a1.066 1.066 0 0 1 .296 1.806l-.018.016a1.095 1.095 0 0 1-1.096.164l-1.721-.694z" fill="#F2AB00"/></svg>