<svg width="24" height="24" viewBox="0 0 24 24" fill="none" xmlns="http://www.w3.org/2000/svg">
<path d="M23.3397 23.3397C22.4593 24.2201 21.0323 24.2201 20.1518 23.3397L16.1739 19.3617C14.5385 20.4109 12.6053 21.036 10.518 21.036C4.70949 21.036 0 16.3271 0 10.518C0 4.70879 4.70949 0 10.518 0C16.3273 0 21.036 4.70869 21.036 10.518C21.036 12.6046 20.4101 14.5385 19.3617 16.1747L23.3397 20.1526C24.2201 21.033 24.2201 22.4593 23.3397 23.3397ZM10.518 3.00511C6.36905 3.00511 3.00516 6.36826 3.00516 10.5179C3.00516 14.6676 6.3691 18.0308 10.518 18.0308C14.6676 18.0308 18.0308 14.6676 18.0308 10.5179C18.0308 6.36826 14.6676 3.00511 10.518 3.00511Z" fill="#403148"/>
</svg>
