<svg width="59" height="37" fill="none" xmlns="http://www.w3.org/2000/svg"><path fill-rule="evenodd" clip-rule="evenodd" d="M13.567 1.971c3.17-1.2 6.42-1.64 9.758-1.847 3.46-.214 20.946-.231 24.232.613 3.99 1.025 9.275 1.237 11 4.815 1.751 3.635-2.207 7.859-2.923 11.947-.606 3.458.484 6.984-.966 10.25-1.556 3.505-3.842 7.244-7.474 8.76-3.613 1.507-21.496-.932-25.34-.954-3.698-.022-7.388 1.66-10.93.824-4.062-.958-8.965-2.184-10.54-5.885-1.602-3.767 2.286-7.971 2.877-12.13.519-3.65-1.642-7.572.38-10.789 2.022-3.216 6.318-4.238 9.926-5.604z" fill="#FFAD0E"/></svg>