<svg width="50" height="33" fill="none" xmlns="http://www.w3.org/2000/svg"><path d="M48.851 22.954h-.312v-7.805c0-1.206-1.031-2.188-2.299-2.188h-2.289a.021.021 0 0 1-.017-.01L40.489 6.32c-.52-1.002-1.573-1.624-2.747-1.624h-5.393V1.418C32.35.636 31.681 0 30.86 0H2.95c-.82 0-1.489.636-1.489 1.418v4.656c0 .385.328.698.733.698.404 0 .732-.313.732-.698V1.418c0-.013.011-.023.025-.023h27.91c.012 0 .023.01.023.023v21.536H14.22a6.179 6.179 0 0 0-4.577-1.994 6.179 6.179 0 0 0-4.576 1.994h-2.14V9.31c0-.385-.328-.698-.732-.698-.405 0-.733.313-.733.698v13.644H1.15c-.634 0-1.149.49-1.149 1.093v3.016c0 .603.515 1.094 1.149 1.094h2.62C4.438 30.65 6.817 32.5 9.642 32.5s5.205-1.85 5.873-4.343h11.702c.405 0 .733-.313.733-.698 0-.385-.328-.697-.733-.697H15.702l.001-.032c0-.85-.195-1.655-.542-2.382h19.678a5.505 5.505 0 0 0-.542 2.382v.032h-3.75c-.404 0-.732.312-.732.697 0 .385.328.698.732.698h3.937c.67 2.494 3.049 4.343 5.874 4.343 2.825 0 5.204-1.85 5.873-4.343h2.62c.634 0 1.149-.491 1.149-1.094v-3.015c0-.603-.515-1.094-1.149-1.094zM1.465 26.762v-2.414h2.66a5.504 5.504 0 0 0-.544 2.382l.001.032H1.465zm8.177 4.343c-2.534 0-4.596-1.963-4.596-4.375 0-2.413 2.062-4.375 4.596-4.375 2.535 0 4.596 1.962 4.596 4.375 0 2.412-2.061 4.375-4.596 4.375zm37.432-12.483h-1.436c-.46 0-.833-.356-.833-.794 0-.437.374-.793.833-.793h1.436v1.587zm-4.77-5.662h-7.082V8.614h4.824l2.259 4.346zm-9.955 9.994V6.09h5.393a1.6 1.6 0 0 1 1.434.847l.146.281h-4.284c-.706 0-1.281.547-1.281 1.22v4.696c0 .673.575 1.22 1.281 1.22H46.24c.46 0 .834.357.834.794v.491h-1.436c-1.267 0-2.298.982-2.298 2.188 0 1.207 1.031 2.188 2.298 2.188h1.436v2.938h-2.14a6.179 6.179 0 0 0-4.576-1.994 6.179 6.179 0 0 0-4.577 1.994h-3.432zm8.009 8.151c-2.534 0-4.596-1.963-4.596-4.375 0-2.413 2.062-4.375 4.596-4.375 2.534 0 4.596 1.962 4.596 4.375 0 2.412-2.062 4.375-4.596 4.375zm8.177-4.343h-2.117v-.032c0-.85-.194-1.655-.542-2.382h2.66v2.414z" fill="#F2AB00"/><path d="M37.36 17.099c0-.385-.327-.698-.732-.698H34.49c-.404 0-.732.313-.732.698 0 .385.328.697.732.697h2.14c.404 0 .732-.312.732-.697zM9.642 24.088c-1.53 0-2.775 1.185-2.775 2.642 0 1.457 1.245 2.642 2.775 2.642 1.53 0 2.776-1.185 2.776-2.642 0-1.457-1.245-2.642-2.776-2.642zm0 3.89c-.722 0-1.31-.56-1.31-1.248s.588-1.247 1.31-1.247c.723 0 1.31.56 1.31 1.247 0 .688-.587 1.248-1.31 1.248zM40.358 24.088c-1.53 0-2.775 1.185-2.775 2.642 0 1.457 1.245 2.642 2.775 2.642 1.53 0 2.775-1.185 2.775-2.642 0-1.457-1.245-2.642-2.775-2.642zm0 3.89c-.723 0-1.31-.56-1.31-1.248s.587-1.247 1.31-1.247c.722 0 1.31.56 1.31 1.247 0 .688-.588 1.248-1.31 1.248z" fill="#F2AB00"/></svg>