<svg width="17" height="20" fill="none" xmlns="http://www.w3.org/2000/svg"><path d="M16.469 4.5c-.1-.1-.2-.1-.4-.1-.3 0-.5 0-.8-.1-1.7-.4-2.9-1.7-3-3.4V.5c0-.3-.2-.5-.5-.5h-3.1c-.3 0-.5.2-.5.5V13c0 1.2-1 2.1-2.1 2.1-.7 0-1.3-.3-1.7-.8-.7-.9-.5-2.3.4-3 .4-.3.8-.3 1.6-.3.1 0 .3 0 .4-.1.1-.1.2-.2.2-.4V7.2c0-.2-.2-.5-.4-.5-1.6-.2-3.2.2-4.4 1.2-1.1 1-1.9 2.4-2.1 4.1-.3 1.9.4 3.9 1.7 5.2 1.2 1.3 2.9 1.9 4.5 1.9s3.2-.6 4.4-1.8c1.2-1.2 1.9-2.8 1.9-4.5V7.3c1.2.6 2.5 1 3.8 1 .3 0 .5-.2.5-.5v-3c-.2-.1-.3-.2-.4-.3z" fill="#fff"/></svg>