<svg width="19" height="18" fill="none" xmlns="http://www.w3.org/2000/svg"><path d="M11.105 2.533c.163.72.085 1.503-.113 2.253-.246.93-.763 2.04-1.698 2.424-1.154.483-2.426-.29-2.914-1.359-.385-.847-.38-1.843-.27-2.746.126-.963.447-1.935 1.161-2.573 1.594-1.423 3.52.272 3.834 2zM3.21 1.944c1.3 1.392 1.319 3.875.248 5.38-.26.377-.654.654-1.112.687-.458.034-.896-.25-1.191-.589C.586 6.782.21 5.775.057 4.896A4.458 4.458 0 0 1 .67 1.848c.169-.275.367-.541.662-.685.354-.126.75-.048 1.085.142.275.173.542.376.794.639zM16.536 5.654c-1.3-.298-2.678.059-3.745.823-.91.648-2.104 1.893-1.85 3.122.24 1.032 1.209 1.495 2.159 1.663 1.915.276 4.154-.55 5.248-2.143.574-.838.51-1.564-.05-2.363-.449-.608-1.066-.941-1.762-1.102zM16.535 13.924l.299.083c1.225.341 2.423 1.512 1.424 2.746-1.037 1.256-6.165-.461-5.401-2.018.085-.202.244-.319.433-.427.939-.64 2.153-.623 3.245-.384z" fill="#403148"/></svg>