<svg width="21" height="24" fill="none" xmlns="http://www.w3.org/2000/svg"><path d="M14.7 14.25c-1.345 0-1.992.75-4.2.75s-2.85-.75-4.2-.75a6.302 6.302 0 0 0-6.3 6.3v1.2A2.25 2.25 0 0 0 2.25 24h16.5A2.25 2.25 0 0 0 21 21.75v-1.2c0-3.478-2.822-6.3-6.3-6.3zm4.05 7.5H2.25v-1.2A4.057 4.057 0 0 1 6.3 16.5c.684 0 1.795.75 4.2.75 2.423 0 3.51-.75 4.2-.75a4.057 4.057 0 0 1 4.05 4.05v1.2zM10.5 13.5a6.752 6.752 0 0 0 6.75-6.75A6.752 6.752 0 0 0 10.5 0a6.752 6.752 0 0 0-6.75 6.75 6.752 6.752 0 0 0 6.75 6.75zm0-11.25c2.48 0 4.5 2.02 4.5 4.5s-2.02 4.5-4.5 4.5S6 9.23 6 6.75s2.02-4.5 4.5-4.5z" fill="#403148"/></svg>