<svg width="24" height="24" fill="none" xmlns="http://www.w3.org/2000/svg"><path d="M21.796 2.403c-1.274-1.38-2.962-2.22-4.758-2.365-1.796-.145-3.58.413-5.03 1.573C10.482.38 8.584-.177 6.693.05 4.803.276 3.06 1.27 1.82 2.833.58 4.395-.07 6.409.006 8.468c.074 2.06.866 4.012 2.215 5.464l8.936 9.684c.111.121.244.218.39.284a1.12 1.12 0 0 0 .923 0c.146-.066.278-.163.39-.284l8.936-9.684a8.226 8.226 0 0 0 1.631-2.644c.378-.99.573-2.05.573-3.12 0-1.07-.195-2.131-.573-3.12a8.226 8.226 0 0 0-1.631-2.645zM20.105 12.1l-8.097 8.76-8.096-8.76A5.722 5.722 0 0 1 2.515 9.26a5.997 5.997 0 0 1 .287-3.201 5.496 5.496 0 0 1 1.874-2.495A4.86 4.86 0 0 1 7.51 2.61c1.35.004 2.644.588 3.598 1.625a1.2 1.2 0 0 0 .39.285 1.12 1.12 0 0 0 .923 0 1.2 1.2 0 0 0 .39-.285c.982-.922 2.25-1.405 3.547-1.352 1.298.053 2.529.639 3.443 1.638.915 1 1.445 2.338 1.483 3.745.038 1.407-.418 2.777-1.276 3.833h.096z" fill="#403148"/></svg>