<svg width="26" height="19" fill="none" xmlns="http://www.w3.org/2000/svg"><path d="M25.994 6.696a10.789 10.789 0 0 0-1.075-5.073A3.423 3.423 0 0 0 22.888.395a89.012 89.012 0 0 0-9.886-.38 89.113 89.113 0 0 0-9.85.368 3.344 3.344 0 0 0-1.724.909C.365 2.312.247 4.055.128 5.529a61.68 61.68 0 0 0 0 7.96c.035.83.153 1.653.355 2.456.142.62.43 1.195.838 1.67.481.496 1.095.83 1.76.959a51.34 51.34 0 0 0 7.677.405c4.134.061 7.76 0 12.047-.344a3.357 3.357 0 0 0 1.807-.958c.33-.344.578-.765.72-1.228.423-1.348.63-2.759.615-4.176.047-.688.047-4.84.047-5.577zM10.333 13.01V5.407l6.992 3.82c-1.96 1.13-4.547 2.407-6.992 3.783z" fill="#fff"/></svg>